<?xml version="1.0" standalone="no"?>
<!DOCTYPE svg PUBLIC "-//W3C//DTD SVG 20010904//EN"
 "http://www.w3.org/TR/2001/REC-SVG-20010904/DTD/svg10.dtd">
<svg version="1.0" xmlns="http://www.w3.org/2000/svg"
 width="512.000000pt" height="512.000000pt" viewBox="0 0 512.000000 512.000000"
 preserveAspectRatio="xMidYMid meet">
<metadata>
Created by potrace 1.14, written by Peter Selinger 2001-2017
</metadata>
<g transform="translate(0.000000,512.000000) scale(0.100000,-0.100000)"
fill="#000000" stroke="none">
<path d="M2470 4493 c-45 -8 -362 -102 -815 -243 -277 -85 -857 -288 -1175
-410 -118 -45 -244 -93 -280 -106 -138 -51 -195 -119 -195 -234 0 -93 41 -167
115 -205 44 -23 568 -222 775 -295 50 -17 109 -39 132 -47 l43 -16 0 -471 c0
-440 1 -474 19 -506 10 -19 32 -45 49 -56 119 -82 1314 -494 1431 -494 60 0
677 195 999 316 79 30 147 52 150 50 5 -3 7 -300 3 -337 -1 -4 -11 -9 -24 -13
-37 -9 -105 -63 -130 -103 -46 -73 -49 -98 -49 -396 0 -155 1 -288 1 -294 1
-10 64 -13 281 -13 217 0 280 3 281 13 3 78 -2 574 -7 595 -19 78 -96 170
-164 194 -17 5 -30 15 -31 21 -1 16 -1 357 0 382 1 15 19 29 69 52 41 19 77
44 92 65 l25 33 3 485 3 485 167 59 c92 32 186 67 209 77 24 10 46 19 51 19
17 0 479 183 510 202 53 33 81 69 98 126 27 90 10 163 -52 227 -33 34 -69 52
-239 119 -573 225 -1310 474 -2005 676 -141 42 -260 56 -340 43z"/>
</g>
</svg>
